<svg width="293" height="247" viewBox="0 0 293 247" fill="none" xmlns="http://www.w3.org/2000/svg">
<path fill-rule="evenodd" clip-rule="evenodd" d="M151.973 7.52113C150.659 9.45768 148.586 12.4557 147.366 14.1836L145.147 17.3251L145.15 21.6467C145.153 26.2391 145.367 27.2962 146.498 28.3C147.736 29.3989 148.231 29.4496 157.74 29.4496H166.752V33.7712V38.0928L148.924 38.0978L131.096 38.1031L127.747 43.2234C125.905 46.0397 124.356 48.4682 124.306 48.6201C124.236 48.8278 131.634 48.8967 153.995 48.8967H183.777L183.901 49.677C183.969 50.1063 184.517 54.0288 185.12 58.3941C185.722 62.7594 186.277 66.7127 186.353 67.1792C186.469 67.8956 186.421 68.0265 186.045 68.0226C185.8 68.0202 176.956 68.0445 166.392 68.0766L147.183 68.1352L141.008 74.5417L134.833 80.9485L134.825 84.3697L134.818 87.791H131.506H128.195L124.599 91.4523C118.315 97.8492 104.688 112.057 104.602 112.301C104.549 112.454 121.679 112.524 153.436 112.502L202.352 112.468L202.207 110.994C202.127 110.183 201.245 102.334 200.246 93.5531C199.247 84.7719 197.944 73.2116 197.35 67.8637C196.756 62.5157 195.955 55.3215 195.571 51.8765C194.814 45.1014 194.524 43.9492 193.032 41.7834C192.059 40.3705 190.916 39.5001 189.052 38.7528C187.879 38.2822 187.218 38.2265 181.818 38.1425L175.876 38.0498V33.7496V29.4496L185.18 29.4443C193.693 29.4395 194.565 29.4016 195.444 28.998C196.586 28.4734 197.098 27.938 197.596 26.7476C197.906 26.0055 197.964 24.4459 197.959 17.0327C197.956 12.1757 197.855 7.77803 197.735 7.25992C197.435 5.9644 196.804 5.17668 195.559 4.54044L194.502 4.00024H174.432H154.362L151.973 7.52113ZM152.826 16.7249V21.7668H171.434H190.042V16.7249V11.6831H171.434H152.826V16.7249ZM44.8993 30.3074C43.1888 31.1969 42.4704 32.533 42.6839 34.4273C42.8222 35.6525 43.3843 36.5283 44.5368 37.3125L45.3305 37.8527L56.94 37.8956C63.3253 37.9192 68.7925 37.9461 69.0897 37.9557C69.5522 37.9703 69.8957 37.4368 71.4751 34.2513C72.4901 32.2046 73.3273 30.395 73.3359 30.2299C73.3482 29.9931 70.4273 29.93 59.4856 29.9312C47.3921 29.9326 45.5277 29.9807 44.8993 30.3074ZM2.13716 49.114C0.642277 49.793 0 50.8587 0 52.6606C0 54.3196 0.413697 55.097 1.79837 56.0393C2.58207 56.5728 2.69204 56.5795 10.5645 56.5795C18.437 56.5795 18.547 56.5728 19.3307 56.0393C20.5156 55.2329 21.0645 54.347 21.1783 53.056C21.3248 51.397 20.5271 49.9178 19.0973 49.1968C18.0543 48.6708 17.8298 48.6569 10.5737 48.6619C3.82557 48.6667 3.02842 48.7094 2.13716 49.114ZM29.2926 49.1082C25.4663 50.8652 26.4339 56.3541 30.6132 56.598C31.2074 56.6326 38.2946 56.6427 46.362 56.6204L61.0307 56.5795L62.7743 52.9182C63.7333 50.9046 64.5722 49.1219 64.6384 48.9567C64.7345 48.7183 61.2146 48.6578 47.5061 48.6619C31.279 48.667 30.1959 48.6934 29.2926 49.1082ZM201.086 52.9662C201.086 53.0918 202.053 61.7081 203.234 72.1132C207.285 107.789 208.5 119.247 208.696 123.624L208.844 126.925H209.476C209.824 126.925 210.59 126.682 211.177 126.385C212.569 125.682 213.511 124.16 213.829 122.104C213.981 121.127 214.043 109.527 214 90.432L213.932 60.3009L213.391 58.8796C212.608 56.8232 211.794 55.5411 210.632 54.5301C208.821 52.9544 208.104 52.7494 204.388 52.7434C202.458 52.7403 201.086 52.833 201.086 52.9662ZM34.8479 67.9753C31.5318 69.1575 31.1323 73.494 34.1958 75.0567C35.1089 75.5225 35.5737 75.5465 43.6561 75.5465H52.1562L53.8701 71.7978C54.8127 69.7359 55.5839 67.9532 55.5839 67.8363C55.5839 67.716 51.2815 67.6282 45.6796 67.6342C37.8993 67.6423 35.5766 67.7155 34.8479 67.9753ZM141.487 79.7617C141.413 79.8354 141.396 81.6992 141.448 83.9032L141.543 87.911L142.382 87.899C142.844 87.8925 145.383 87.8654 148.024 87.839L152.826 87.791V83.7095V79.628H147.223C144.142 79.628 141.561 79.6883 141.487 79.7617ZM159.549 83.7095V87.791H165.311H171.074V83.7095V79.628H165.311H159.549V83.7095ZM177.796 83.6747V87.7214L179.417 87.8421C180.308 87.9086 182.875 87.9254 185.12 87.8798L189.201 87.797L189.267 83.7124L189.333 79.628H183.565H177.796V83.6747ZM23.0499 86.7111C19.6757 87.9041 19.5113 92.5687 22.7908 94.0583C23.6684 94.4566 24.4677 94.5034 30.4773 94.5082C36.7533 94.5132 37.2499 94.4818 38.2007 94.0215C41.3794 92.4828 40.8778 87.5696 37.4448 86.6167C35.9639 86.2055 24.2629 86.2823 23.0499 86.7111ZM47.9585 87.0695C45.8307 88.3667 45.453 91.1193 47.1296 93.1116C48.3261 94.5334 48.1069 94.5135 62.495 94.5135H75.6642L77.5666 90.7321C78.6129 88.6522 79.5061 86.8698 79.5515 86.7706C79.5971 86.6715 72.6833 86.591 64.1875 86.5915C49.1979 86.5922 48.7179 86.6064 47.9585 87.0695ZM123.399 94.5826C123.334 94.7528 123.311 96.6707 123.347 98.8442L123.413 102.796L128.095 102.868C130.67 102.908 133.236 102.874 133.798 102.794L134.818 102.647V98.4603V94.2734H129.168C124.78 94.2734 123.492 94.3425 123.399 94.5826ZM141.415 94.5223C141.331 94.6592 141.293 96.5499 141.331 98.7239L141.401 102.676H147.113H152.826V98.4749V94.2734H147.197C143.571 94.2734 141.514 94.362 141.415 94.5223ZM159.549 98.4706V102.676H165.317H171.085L171.019 98.5349L170.954 94.3934L165.251 94.3291L159.549 94.2647V98.4706ZM177.796 98.595V102.676H183.439H189.081V98.595V94.5135H183.439H177.796V98.595ZM41.9038 105.602C40.0687 106.849 39.4463 109.048 40.3748 111.005C41.2096 112.764 43.6575 113.642 45.6273 112.89C48.5362 111.779 49.0421 107.779 46.5174 105.854C45.3022 104.927 43.0765 104.806 41.9038 105.602ZM57.0039 105.307C55.9023 105.641 55.1385 106.294 54.6353 107.334C53.5579 109.559 54.3637 111.725 56.6644 112.787C57.485 113.165 58.2603 113.23 61.9918 113.235L66.359 113.24L68.3051 109.393C69.3754 107.277 70.186 105.44 70.1066 105.311C69.933 105.031 57.9288 105.026 57.0039 105.307ZM97.7549 119.34L96.1474 120.878L96.2144 132.024L96.2814 143.169L97.0092 144.351C97.5324 145.2 98.106 145.735 99.05 146.252L100.363 146.973H149.584H198.806L200.09 146.262C200.884 145.821 201.662 145.135 202.13 144.461L202.887 143.371L202.953 130.587L203.02 117.802H151.191H99.3624L97.7549 119.34ZM108.425 126.587L107.686 127.208V132.447V137.687L108.425 138.308L109.164 138.93H149.618C176.906 138.93 190.224 138.849 190.535 138.682C191.573 138.127 191.722 137.313 191.722 132.201V127.369L191.021 126.667L190.319 125.965H149.741H109.164L108.425 126.587ZM147.892 128.704C146.318 129.389 145.195 131.564 145.52 133.297C145.711 134.315 146.463 135.466 147.381 136.147C148.337 136.855 150.829 136.859 151.773 136.154C153.28 135.029 153.881 133.446 153.489 131.631C152.944 129.102 150.233 127.684 147.892 128.704Z" fill="#FAF7F0"/>
<mask id="path-2-inside-1_559_331" fill="white">
<path d="M165.5 48.912L184 48.912L186.5 68.1197L147.269 68.1197L165.5 48.912Z"/>
</mask>
<path d="M165.5 48.912L184 48.912L186.5 68.1197L147.269 68.1197L165.5 48.912Z" fill="#FCBE00"/>
<path d="M165.5 48.912L165.5 8.91199L148.317 8.91194L136.488 21.3748L165.5 48.912ZM184 48.912L223.666 43.7492L219.131 8.91214L184 8.91204L184 48.912ZM186.5 68.1197L186.5 108.12L232.044 108.12L226.166 62.9569L186.5 68.1197ZM147.269 68.1197L118.257 40.5825L54.1531 108.12L147.269 108.12L147.269 68.1197ZM165.5 48.912L165.5 88.912L184 88.912L184 48.912L184 8.91204L165.5 8.91199L165.5 48.912ZM184 48.912L144.335 54.0749L146.835 73.2826L186.5 68.1197L226.166 62.9569L223.666 43.7492L184 48.912ZM186.5 68.1197L186.5 28.1198L147.269 28.1197L147.269 68.1197L147.269 108.12L186.5 108.12L186.5 68.1197ZM147.269 68.1197L176.281 95.6569L194.512 76.4492L165.5 48.912L136.488 21.3748L118.257 40.5825L147.269 68.1197Z" fill="#FCBE00" mask="url(#path-2-inside-1_559_331)"/>
<rect x="177" y="94.0002" width="13" height="9" fill="#FCBE00"/>
<path fill-rule="evenodd" clip-rule="evenodd" d="M80.0002 38.0002C70.5002 59.0002 62.1387 75.7589 62.1387 75.9168C62.1387 76.1043 67.1948 76.2041 76.7118 76.2041C84.727 76.2041 91.2849 76.2719 91.2849 76.3548C91.2849 76.4376 84.7256 92.3177 76.7087 111.643C68.6915 130.969 62.1656 146.868 62.2063 146.974C59.8676 148.795 145 55.0002 145 55.0002C145 55.0002 136.892 55.05 125.5 55.0002H110L123.021 36.2059C128.357 27.6652 142.377 7.65721 145.866 2.04265C147.135 0.000901937 147.139 0 147.139 0H120.947L97.5002 0.000244141L80.0002 38.0002Z" fill="#FCBE00"/>
<path d="M8.96 215V209.4L34.88 172.44H10.24V163.48H48.96V170.04L23.28 206.68H49.36V215H8.96ZM68.8081 215.8C66.4081 215.8 64.1681 215.374 62.0881 214.52C60.0615 213.614 58.4081 212.307 57.1281 210.6C55.9015 208.84 55.2881 206.654 55.2881 204.04C55.2881 200.307 56.5948 197.32 59.2081 195.08C61.8748 192.84 65.7948 191.72 70.9681 191.72H82.1681V190.68C82.1681 188.334 81.5015 186.68 80.1681 185.72C78.8881 184.76 76.2748 184.28 72.3281 184.28C68.0081 184.28 63.8481 184.947 59.8481 186.28V178.68C61.6081 177.987 63.7415 177.427 66.2481 177C68.8081 176.52 71.5815 176.28 74.5681 176.28C80.2748 176.28 84.6748 177.454 87.7681 179.8C90.9148 182.094 92.4881 185.8 92.4881 190.92V215H83.1281L82.5681 211.56C81.0748 212.894 79.2348 213.934 77.0481 214.68C74.8615 215.427 72.1148 215.8 68.8081 215.8ZM71.7681 208.68C74.1681 208.68 76.2481 208.28 78.0081 207.48C79.7681 206.68 81.1548 205.667 82.1681 204.44V198.44H71.2081C66.9948 198.44 64.8881 200.174 64.8881 203.64C64.8881 207 67.1815 208.68 71.7681 208.68ZM101.185 232.28V177.08H110.545L111.105 180.6C112.758 179.214 114.572 178.147 116.545 177.4C118.518 176.654 120.838 176.28 123.505 176.28C129.052 176.28 133.318 177.8 136.305 180.84C139.345 183.827 140.865 188.734 140.865 195.56C140.865 202.387 139.238 207.48 135.985 210.84C132.785 214.147 128.412 215.8 122.865 215.8C118.598 215.8 114.972 214.84 111.985 212.92V232.28H101.185ZM120.145 207.88C123.345 207.88 125.772 206.894 127.425 204.92C129.078 202.947 129.905 199.854 129.905 195.64C129.905 191.587 129.158 188.68 127.665 186.92C126.172 185.107 123.772 184.2 120.465 184.2C117.158 184.2 114.332 185.347 111.985 187.64V205C113.105 205.854 114.278 206.547 115.505 207.08C116.785 207.614 118.332 207.88 120.145 207.88Z" fill="#FAF7F0"/>
<path d="M148.373 215V163.48H172.533C176.586 163.48 179.893 164.254 182.453 165.8C185.066 167.347 187.013 169.454 188.293 172.12C189.573 174.787 190.213 177.827 190.213 181.24C190.213 184.707 189.466 187.774 187.973 190.44C186.533 193.107 184.453 195.187 181.733 196.68C179.066 198.12 175.893 198.84 172.213 198.84H159.173V215H148.373ZM159.173 190.28H169.973C173.066 190.28 175.386 189.48 176.933 187.88C178.533 186.227 179.333 184.014 179.333 181.24C179.333 178.254 178.586 175.987 177.093 174.44C175.599 172.84 173.359 172.04 170.373 172.04H159.173V190.28ZM219.625 215.8C202.932 215.8 194.585 207.027 194.585 189.48C194.585 180.04 196.692 173.214 200.905 169C205.118 164.787 211.358 162.68 219.625 162.68C227.892 162.68 234.132 164.787 238.345 169C242.558 173.214 244.665 180.04 244.665 189.48C244.665 207.027 236.318 215.8 219.625 215.8ZM219.625 206.6C224.478 206.6 228.025 205.214 230.265 202.44C232.558 199.614 233.705 195.294 233.705 189.48C233.705 183.027 232.558 178.494 230.265 175.88C228.025 173.214 224.478 171.88 219.625 171.88C214.772 171.88 211.198 173.214 208.905 175.88C206.665 178.494 205.545 183.027 205.545 189.48C205.545 195.294 206.665 199.614 208.905 202.44C211.198 205.214 214.772 206.6 219.625 206.6ZM268.201 215.8C264.894 215.8 261.801 215.56 258.921 215.08C256.094 214.6 253.641 213.907 251.561 213V203.48C253.907 204.44 256.441 205.214 259.161 205.8C261.881 206.387 264.547 206.68 267.161 206.68C270.894 206.68 273.641 206.334 275.401 205.64C277.161 204.947 278.041 203.374 278.041 200.92C278.041 199.374 277.667 198.147 276.921 197.24C276.174 196.334 274.867 195.534 273.001 194.84C271.187 194.094 268.601 193.267 265.241 192.36C259.854 190.867 256.067 189 253.881 186.76C251.694 184.52 250.601 181.427 250.601 177.48C250.601 172.734 252.334 169.08 255.801 166.52C259.267 163.96 264.307 162.68 270.921 162.68C274.014 162.68 276.894 162.894 279.561 163.32C282.227 163.747 284.387 164.254 286.041 164.84V174.36C281.667 172.707 277.107 171.88 272.361 171.88C269.001 171.88 266.361 172.254 264.441 173C262.521 173.694 261.561 175.187 261.561 177.48C261.561 178.814 261.907 179.88 262.601 180.68C263.294 181.48 264.467 182.2 266.121 182.84C267.827 183.48 270.201 184.2 273.241 185C277.454 186.12 280.707 187.454 283.001 189C285.294 190.547 286.867 192.307 287.721 194.28C288.627 196.254 289.081 198.467 289.081 200.92C289.081 205.4 287.374 209 283.961 211.72C280.547 214.44 275.294 215.8 268.201 215.8Z" fill="#FCBE00"/>
</svg>
