<svg width="293" height="247" viewBox="0 0 293 247" fill="none" xmlns="http://www.w3.org/2000/svg">
<path fill-rule="evenodd" clip-rule="evenodd" d="M151.973 7.52089C150.659 9.45744 148.586 12.4554 147.366 14.1833L145.147 17.3249L145.15 21.6465C145.153 26.2389 145.367 27.296 146.498 28.2998C147.736 29.3987 148.231 29.4493 157.74 29.4493H166.752V33.7709V38.0925L148.924 38.0975L131.096 38.1028L127.747 43.2232C125.905 46.0394 124.356 48.4679 124.306 48.6199C124.236 48.8276 131.634 48.8965 153.995 48.8965H183.777L183.901 49.6768C183.969 50.106 184.517 54.0286 185.12 58.3939C185.722 62.7592 186.277 66.7124 186.353 67.1789C186.469 67.8954 186.421 68.0262 186.045 68.0224C185.8 68.02 176.956 68.0442 166.392 68.0764L147.183 68.135L141.008 74.5415L134.833 80.9482L134.825 84.3695L134.818 87.7907H131.506H128.195L124.599 91.4521C118.315 97.849 104.688 112.057 104.602 112.301C104.549 112.453 121.679 112.524 153.436 112.502L202.352 112.468L202.207 110.993C202.127 110.182 201.245 102.334 200.246 93.5529C199.247 84.7716 197.944 73.2114 197.35 67.8634C196.756 62.5155 195.955 55.3212 195.571 51.8762C194.814 45.1012 194.524 43.949 193.032 41.7831C192.059 40.3702 190.916 39.4999 189.052 38.7525C187.879 38.2819 187.218 38.2262 181.818 38.1422L175.876 38.0495V33.7493V29.4493L185.18 29.4441C193.693 29.4393 194.565 29.4013 195.444 28.9977C196.586 28.4731 197.098 27.9377 197.596 26.7474C197.906 26.0053 197.964 24.4457 197.959 17.0325C197.956 12.1755 197.855 7.77779 197.735 7.25968C197.435 5.96416 196.804 5.17643 195.559 4.5402L194.502 4H174.432H154.362L151.973 7.52089ZM152.826 16.7247V21.7665H171.434H190.042V16.7247V11.6828H171.434H152.826V16.7247ZM44.8993 30.3072C43.1888 31.1967 42.4704 32.5328 42.6839 34.4271C42.8222 35.6523 43.3843 36.5281 44.5368 37.3122L45.3305 37.8524L56.94 37.8954C63.3253 37.9189 68.7925 37.9458 69.0897 37.9554C69.5522 37.9701 69.8957 37.4366 71.4751 34.2511C72.4901 32.2043 73.3273 30.3948 73.3359 30.2296C73.3482 29.9929 70.4273 29.9298 59.4856 29.931C47.3921 29.9324 45.5277 29.9804 44.8993 30.3072ZM2.13716 49.1138C0.642277 49.7927 0 50.8585 0 52.6603C0 54.3193 0.413697 55.0967 1.79837 56.0391C2.58207 56.5726 2.69204 56.5793 10.5645 56.5793C18.437 56.5793 18.547 56.5726 19.3307 56.0391C20.5156 55.2326 21.0645 54.3467 21.1783 53.0558C21.3248 51.3968 20.5271 49.9176 19.0973 49.1966C18.0543 48.6706 17.8298 48.6566 10.5737 48.6617C3.82557 48.6665 3.02842 48.7092 2.13716 49.1138ZM29.2926 49.108C25.4663 50.865 26.4339 56.3538 30.6132 56.5978C31.2074 56.6324 38.2946 56.6424 46.362 56.6201L61.0307 56.5793L62.7743 52.9179C63.7333 50.9043 64.5722 49.1217 64.6384 48.9565C64.7345 48.7181 61.2146 48.6576 47.5061 48.6617C31.279 48.6667 30.1959 48.6931 29.2926 49.108ZM201.086 52.966C201.086 53.0915 202.053 61.7078 203.234 72.113C207.285 107.789 208.5 119.246 208.696 123.624L208.844 126.925H209.476C209.824 126.925 210.59 126.682 211.177 126.385C212.569 125.681 213.511 124.16 213.829 122.104C213.981 121.127 214.043 109.526 214 90.4317L213.932 60.3007L213.391 58.8793C212.608 56.823 211.794 55.5409 210.632 54.5299C208.821 52.9542 208.104 52.7492 204.388 52.7432C202.458 52.74 201.086 52.8327 201.086 52.966ZM34.8479 67.9751C31.5318 69.1573 31.1323 73.4937 34.1958 75.0565C35.1089 75.5222 35.5737 75.5462 43.6561 75.5462H52.1562L53.8701 71.7975C54.8127 69.7356 55.5839 67.953 55.5839 67.8361C55.5839 67.7158 51.2815 67.6279 45.6796 67.6339C37.8993 67.6421 35.5766 67.7153 34.8479 67.9751ZM141.487 79.7615C141.413 79.8352 141.396 81.699 141.448 83.903L141.543 87.9108L142.382 87.8988C142.844 87.8923 145.383 87.8652 148.024 87.8388L152.826 87.7907V83.7092V79.6277H147.223C144.142 79.6277 141.561 79.688 141.487 79.7615ZM159.549 83.7092V87.7907H165.311H171.074V83.7092V79.6277H165.311H159.549V83.7092ZM177.796 83.6744V87.7211L179.417 87.8419C180.308 87.9084 182.875 87.9252 185.12 87.8796L189.201 87.7968L189.267 83.7121L189.333 79.6277H183.565H177.796V83.6744ZM23.0499 86.7108C19.6757 87.9038 19.5113 92.5685 22.7908 94.058C23.6684 94.4563 24.4677 94.5031 30.4773 94.5079C36.7533 94.513 37.2499 94.4815 38.2007 94.0213C41.3794 92.4825 40.8778 87.5694 37.4448 86.6165C35.9639 86.2052 24.2629 86.282 23.0499 86.7108ZM47.9585 87.0693C45.8307 88.3665 45.453 91.1191 47.1296 93.1113C48.3261 94.5331 48.1069 94.5132 62.495 94.5132H75.6642L77.5666 90.7318C78.6129 88.6519 79.5061 86.8695 79.5515 86.7704C79.5971 86.6712 72.6833 86.5908 64.1875 86.5913C49.1979 86.592 48.7179 86.6061 47.9585 87.0693ZM123.399 94.5824C123.334 94.7526 123.311 96.6704 123.347 98.8439L123.413 102.796L128.095 102.868C130.67 102.907 133.236 102.874 133.798 102.793L134.818 102.647V98.46V94.2731H129.168C124.78 94.2731 123.492 94.3423 123.399 94.5824ZM141.415 94.5221C141.331 94.6589 141.293 96.5496 141.331 98.7236L141.401 102.676H147.113H152.826V98.4747V94.2731H147.197C143.571 94.2731 141.514 94.3617 141.415 94.5221ZM159.549 98.4703V102.676H165.317H171.085L171.019 98.5347L170.954 94.3932L165.251 94.3288L159.549 94.2645V98.4703ZM177.796 98.5947V102.676H183.439H189.081V98.5947V94.5132H183.439H177.796V98.5947ZM41.9038 105.602C40.0687 106.848 39.4463 109.048 40.3748 111.004C41.2096 112.764 43.6575 113.642 45.6273 112.89C48.5362 111.779 49.0421 107.779 46.5174 105.853C45.3022 104.927 43.0765 104.805 41.9038 105.602ZM57.0039 105.307C55.9023 105.64 55.1385 106.294 54.6353 107.334C53.5579 109.559 54.3637 111.724 56.6644 112.786C57.485 113.165 58.2603 113.23 61.9918 113.235L66.359 113.24L68.3051 109.393C69.3754 107.277 70.186 105.44 70.1066 105.311C69.933 105.031 57.9288 105.026 57.0039 105.307ZM97.7549 119.34L96.1474 120.877L96.2144 132.023L96.2814 143.169L97.0092 144.351C97.5324 145.2 98.106 145.734 99.05 146.252L100.363 146.972H149.584H198.806L200.09 146.261C200.884 145.821 201.662 145.135 202.13 144.461L202.887 143.371L202.953 130.586L203.02 117.802H151.191H99.3624L97.7549 119.34ZM108.425 126.586L107.686 127.208V132.447V137.686L108.425 138.308L109.164 138.93H149.618C176.906 138.93 190.224 138.849 190.535 138.682C191.573 138.127 191.722 137.313 191.722 132.201V127.368L191.021 126.667L190.319 125.965H149.741H109.164L108.425 126.586ZM147.892 128.703C146.318 129.389 145.195 131.564 145.52 133.297C145.711 134.315 146.463 135.466 147.381 136.146C148.337 136.854 150.829 136.859 151.773 136.154C153.28 135.029 153.881 133.446 153.489 131.631C152.944 129.102 150.233 127.684 147.892 128.703Z" fill="#070E1E"/>
<mask id="path-2-inside-1_559_330" fill="white">
<path d="M165.5 48.9117L184 48.9118L186.5 68.1195L147.269 68.1195L165.5 48.9117Z"/>
</mask>
<path d="M165.5 48.9117L184 48.9118L186.5 68.1195L147.269 68.1195L165.5 48.9117Z" fill="#FCBE00"/>
<path d="M165.5 48.9117L165.5 8.91175L148.317 8.9117L136.488 21.3746L165.5 48.9117ZM184 48.9118L223.666 43.7489L219.131 8.9119L184 8.9118L184 48.9118ZM186.5 68.1195L186.5 108.12L232.044 108.12L226.166 62.9567L186.5 68.1195ZM147.269 68.1195L118.257 40.5823L54.1531 108.119L147.269 108.119L147.269 68.1195ZM165.5 48.9117L165.5 88.9117L184 88.9118L184 48.9118L184 8.9118L165.5 8.91175L165.5 48.9117ZM184 48.9118L144.335 54.0747L146.835 73.2824L186.5 68.1195L226.166 62.9567L223.666 43.7489L184 48.9118ZM186.5 68.1195L186.5 28.1195L147.269 28.1195L147.269 68.1195L147.269 108.119L186.5 108.12L186.5 68.1195ZM147.269 68.1195L176.281 95.6567L194.512 76.4489L165.5 48.9117L136.488 21.3746L118.257 40.5823L147.269 68.1195Z" fill="#FCBE00" mask="url(#path-2-inside-1_559_330)"/>
<rect x="177" y="94" width="13" height="9" fill="#FCBE00"/>
<path fill-rule="evenodd" clip-rule="evenodd" d="M80 38C70.5 59 62.1384 75.7587 62.1384 75.9166C62.1384 76.1041 67.1946 76.2038 76.7115 76.2038C84.7268 76.2038 91.2847 76.2717 91.2847 76.3545C91.2847 76.4373 84.7253 92.3174 76.7084 111.643C68.6912 130.969 62.1653 146.868 62.2061 146.974C59.8674 148.795 145 55 145 55C145 55 136.891 55.0497 125.5 55H110L123.021 36.2056C128.357 27.665 142.377 7.65696 145.866 2.04241C147.134 0.000657797 147.138 -0.000244141 147.138 -0.000244141H120.947L97.5 0L80 38Z" fill="#FCBE00"/>
<path d="M8.96 215V209.4L34.88 172.44H10.24V163.48H48.96V170.04L23.28 206.68H49.36V215H8.96ZM68.8081 215.8C66.4081 215.8 64.1681 215.373 62.0881 214.52C60.0615 213.613 58.4081 212.307 57.1281 210.6C55.9015 208.84 55.2881 206.653 55.2881 204.04C55.2881 200.307 56.5948 197.32 59.2081 195.08C61.8748 192.84 65.7948 191.72 70.9681 191.72H82.1681V190.68C82.1681 188.333 81.5015 186.68 80.1681 185.72C78.8881 184.76 76.2748 184.28 72.3281 184.28C68.0081 184.28 63.8481 184.947 59.8481 186.28V178.68C61.6081 177.987 63.7415 177.427 66.2481 177C68.8081 176.52 71.5815 176.28 74.5681 176.28C80.2748 176.28 84.6748 177.453 87.7681 179.8C90.9148 182.093 92.4881 185.8 92.4881 190.92V215H83.1281L82.5681 211.56C81.0748 212.893 79.2348 213.933 77.0481 214.68C74.8615 215.427 72.1148 215.8 68.8081 215.8ZM71.7681 208.68C74.1681 208.68 76.2481 208.28 78.0081 207.48C79.7681 206.68 81.1548 205.667 82.1681 204.44V198.44H71.2081C66.9948 198.44 64.8881 200.173 64.8881 203.64C64.8881 207 67.1815 208.68 71.7681 208.68ZM101.185 232.28V177.08H110.545L111.105 180.6C112.758 179.213 114.572 178.147 116.545 177.4C118.518 176.653 120.838 176.28 123.505 176.28C129.052 176.28 133.318 177.8 136.305 180.84C139.345 183.827 140.865 188.733 140.865 195.56C140.865 202.387 139.238 207.48 135.985 210.84C132.785 214.147 128.412 215.8 122.865 215.8C118.598 215.8 114.972 214.84 111.985 212.92V232.28H101.185ZM120.145 207.88C123.345 207.88 125.772 206.893 127.425 204.92C129.078 202.947 129.905 199.853 129.905 195.64C129.905 191.587 129.158 188.68 127.665 186.92C126.172 185.107 123.772 184.2 120.465 184.2C117.158 184.2 114.332 185.347 111.985 187.64V205C113.105 205.853 114.278 206.547 115.505 207.08C116.785 207.613 118.332 207.88 120.145 207.88Z" fill="#060B1E"/>
<path d="M148.373 215V163.48H172.533C176.586 163.48 179.893 164.253 182.453 165.8C185.066 167.347 187.013 169.453 188.293 172.12C189.573 174.787 190.213 177.827 190.213 181.24C190.213 184.707 189.466 187.773 187.973 190.44C186.533 193.107 184.453 195.187 181.733 196.68C179.066 198.12 175.893 198.84 172.213 198.84H159.173V215H148.373ZM159.173 190.28H169.973C173.066 190.28 175.386 189.48 176.933 187.88C178.533 186.227 179.333 184.013 179.333 181.24C179.333 178.253 178.586 175.987 177.093 174.44C175.599 172.84 173.359 172.04 170.373 172.04H159.173V190.28ZM219.625 215.8C202.932 215.8 194.585 207.027 194.585 189.48C194.585 180.04 196.692 173.213 200.905 169C205.118 164.787 211.358 162.68 219.625 162.68C227.892 162.68 234.132 164.787 238.345 169C242.558 173.213 244.665 180.04 244.665 189.48C244.665 207.027 236.318 215.8 219.625 215.8ZM219.625 206.6C224.478 206.6 228.025 205.213 230.265 202.44C232.558 199.613 233.705 195.293 233.705 189.48C233.705 183.027 232.558 178.493 230.265 175.88C228.025 173.213 224.478 171.88 219.625 171.88C214.772 171.88 211.198 173.213 208.905 175.88C206.665 178.493 205.545 183.027 205.545 189.48C205.545 195.293 206.665 199.613 208.905 202.44C211.198 205.213 214.772 206.6 219.625 206.6ZM268.201 215.8C264.894 215.8 261.801 215.56 258.921 215.08C256.094 214.6 253.641 213.907 251.561 213V203.48C253.907 204.44 256.441 205.213 259.161 205.8C261.881 206.387 264.547 206.68 267.161 206.68C270.894 206.68 273.641 206.333 275.401 205.64C277.161 204.947 278.041 203.373 278.041 200.92C278.041 199.373 277.667 198.147 276.921 197.24C276.174 196.333 274.867 195.533 273.001 194.84C271.187 194.093 268.601 193.267 265.241 192.36C259.854 190.867 256.067 189 253.881 186.76C251.694 184.52 250.601 181.427 250.601 177.48C250.601 172.733 252.334 169.08 255.801 166.52C259.267 163.96 264.307 162.68 270.921 162.68C274.014 162.68 276.894 162.893 279.561 163.32C282.227 163.747 284.387 164.253 286.041 164.84V174.36C281.667 172.707 277.107 171.88 272.361 171.88C269.001 171.88 266.361 172.253 264.441 173C262.521 173.693 261.561 175.187 261.561 177.48C261.561 178.813 261.907 179.88 262.601 180.68C263.294 181.48 264.467 182.2 266.121 182.84C267.827 183.48 270.201 184.2 273.241 185C277.454 186.12 280.707 187.453 283.001 189C285.294 190.547 286.867 192.307 287.721 194.28C288.627 196.253 289.081 198.467 289.081 200.92C289.081 205.4 287.374 209 283.961 211.72C280.547 214.44 275.294 215.8 268.201 215.8Z" fill="#FCBE00"/>
</svg>
