<svg width="525" height="147" viewBox="0 0 525 147" fill="none" xmlns="http://www.w3.org/2000/svg">
<path fill-rule="evenodd" clip-rule="evenodd" d="M151.973 7.52113C150.659 9.45768 148.586 12.4557 147.366 14.1836L145.147 17.3251L145.15 21.6467C145.153 26.2391 145.367 27.2962 146.498 28.3C147.736 29.3989 148.231 29.4496 157.74 29.4496H166.752V33.7712V38.0928L148.924 38.0978L131.096 38.1031L127.747 43.2234C125.905 46.0397 124.356 48.4682 124.306 48.6201C124.236 48.8278 131.634 48.8967 153.995 48.8967H183.777L183.901 49.677C183.969 50.1063 184.517 54.0288 185.12 58.3941C185.722 62.7594 186.277 66.7127 186.353 67.1792C186.469 67.8956 186.421 68.0265 186.045 68.0226C185.8 68.0202 176.956 68.0445 166.392 68.0766L147.183 68.1352L141.008 74.5417L134.833 80.9485L134.825 84.3697L134.818 87.791H131.506H128.195L124.599 91.4523C118.315 97.8492 104.688 112.057 104.602 112.301C104.549 112.454 121.679 112.524 153.436 112.502L202.352 112.468L202.207 110.994C202.127 110.183 201.245 102.334 200.246 93.5531C199.247 84.7719 197.944 73.2116 197.35 67.8637C196.756 62.5157 195.955 55.3215 195.571 51.8765C194.814 45.1014 194.524 43.9492 193.032 41.7834C192.059 40.3705 190.916 39.5001 189.052 38.7528C187.879 38.2822 187.218 38.2265 181.818 38.1425L175.876 38.0498V33.7496V29.4496L185.18 29.4443C193.693 29.4395 194.565 29.4016 195.444 28.998C196.586 28.4734 197.098 27.938 197.596 26.7476C197.906 26.0055 197.964 24.4459 197.959 17.0327C197.956 12.1757 197.855 7.77803 197.735 7.25992C197.435 5.9644 196.804 5.17668 195.559 4.54044L194.502 4.00024H174.432H154.362L151.973 7.52113ZM152.826 16.7249V21.7668H171.434H190.042V16.7249V11.6831H171.434H152.826V16.7249ZM44.8993 30.3074C43.1888 31.1969 42.4704 32.533 42.6839 34.4273C42.8222 35.6525 43.3843 36.5283 44.5368 37.3125L45.3305 37.8527L56.94 37.8956C63.3253 37.9192 68.7925 37.9461 69.0897 37.9557C69.5522 37.9703 69.8957 37.4368 71.4751 34.2513C72.4901 32.2046 73.3273 30.395 73.3359 30.2299C73.3482 29.9931 70.4273 29.93 59.4856 29.9312C47.3921 29.9326 45.5277 29.9807 44.8993 30.3074ZM2.13716 49.114C0.642277 49.793 0 50.8587 0 52.6606C0 54.3196 0.413697 55.097 1.79837 56.0393C2.58207 56.5728 2.69204 56.5795 10.5645 56.5795C18.437 56.5795 18.547 56.5728 19.3307 56.0393C20.5156 55.2329 21.0645 54.347 21.1783 53.056C21.3248 51.397 20.5271 49.9178 19.0973 49.1968C18.0543 48.6708 17.8298 48.6569 10.5737 48.6619C3.82557 48.6667 3.02842 48.7094 2.13716 49.114ZM29.2926 49.1082C25.4663 50.8652 26.4339 56.3541 30.6132 56.598C31.2074 56.6326 38.2946 56.6427 46.362 56.6204L61.0307 56.5795L62.7743 52.9182C63.7333 50.9046 64.5722 49.1219 64.6384 48.9567C64.7345 48.7183 61.2146 48.6578 47.5061 48.6619C31.279 48.667 30.1959 48.6934 29.2926 49.1082ZM201.086 52.9662C201.086 53.0918 202.053 61.7081 203.234 72.1132C207.285 107.789 208.5 119.247 208.696 123.624L208.844 126.925H209.476C209.824 126.925 210.59 126.682 211.177 126.385C212.569 125.682 213.511 124.16 213.829 122.104C213.981 121.127 214.043 109.527 214 90.432L213.932 60.3009L213.391 58.8796C212.608 56.8232 211.794 55.5411 210.632 54.5301C208.821 52.9544 208.104 52.7494 204.388 52.7434C202.458 52.7403 201.086 52.833 201.086 52.9662ZM34.8479 67.9753C31.5318 69.1575 31.1323 73.494 34.1958 75.0567C35.1089 75.5225 35.5737 75.5465 43.6561 75.5465H52.1562L53.8701 71.7978C54.8127 69.7359 55.5839 67.9532 55.5839 67.8363C55.5839 67.716 51.2815 67.6282 45.6796 67.6342C37.8993 67.6423 35.5766 67.7155 34.8479 67.9753ZM141.487 79.7617C141.413 79.8354 141.396 81.6992 141.448 83.9032L141.543 87.911L142.382 87.899C142.844 87.8925 145.383 87.8654 148.024 87.839L152.826 87.791V83.7095V79.628H147.223C144.142 79.628 141.561 79.6883 141.487 79.7617ZM159.549 83.7095V87.791H165.311H171.074V83.7095V79.628H165.311H159.549V83.7095ZM177.796 83.6747V87.7214L179.417 87.8421C180.308 87.9086 182.875 87.9254 185.12 87.8798L189.201 87.797L189.267 83.7124L189.333 79.628H183.565H177.796V83.6747ZM23.0499 86.7111C19.6757 87.9041 19.5113 92.5687 22.7908 94.0583C23.6684 94.4566 24.4677 94.5034 30.4773 94.5082C36.7533 94.5132 37.2499 94.4818 38.2007 94.0215C41.3794 92.4828 40.8778 87.5696 37.4448 86.6167C35.9639 86.2055 24.2629 86.2823 23.0499 86.7111ZM47.9585 87.0695C45.8307 88.3667 45.453 91.1193 47.1296 93.1116C48.3261 94.5334 48.1069 94.5135 62.495 94.5135H75.6642L77.5666 90.7321C78.6129 88.6522 79.5061 86.8698 79.5515 86.7706C79.5971 86.6715 72.6833 86.591 64.1875 86.5915C49.1979 86.5922 48.7179 86.6064 47.9585 87.0695ZM123.399 94.5826C123.334 94.7528 123.311 96.6707 123.347 98.8442L123.413 102.796L128.095 102.868C130.67 102.908 133.236 102.874 133.798 102.794L134.818 102.647V98.4603V94.2734H129.168C124.78 94.2734 123.492 94.3425 123.399 94.5826ZM141.415 94.5223C141.331 94.6592 141.293 96.5499 141.331 98.7239L141.401 102.676H147.113H152.826V98.4749V94.2734H147.197C143.571 94.2734 141.514 94.362 141.415 94.5223ZM159.549 98.4706V102.676H165.317H171.085L171.019 98.5349L170.954 94.3934L165.251 94.3291L159.549 94.2647V98.4706ZM177.796 98.595V102.676H183.439H189.081V98.595V94.5135H183.439H177.796V98.595ZM41.9038 105.602C40.0687 106.849 39.4463 109.048 40.3748 111.005C41.2096 112.764 43.6575 113.642 45.6273 112.89C48.5362 111.779 49.0421 107.779 46.5174 105.854C45.3022 104.927 43.0765 104.806 41.9038 105.602ZM57.0039 105.307C55.9023 105.641 55.1385 106.294 54.6353 107.334C53.5579 109.559 54.3637 111.725 56.6644 112.787C57.485 113.165 58.2603 113.23 61.9918 113.235L66.359 113.24L68.3051 109.393C69.3754 107.277 70.186 105.44 70.1066 105.311C69.933 105.031 57.9288 105.026 57.0039 105.307ZM97.7549 119.34L96.1474 120.878L96.2144 132.024L96.2814 143.169L97.0092 144.351C97.5324 145.2 98.106 145.735 99.05 146.252L100.363 146.973H149.584H198.806L200.09 146.262C200.884 145.821 201.662 145.135 202.13 144.461L202.887 143.371L202.953 130.587L203.02 117.802H151.191H99.3624L97.7549 119.34ZM108.425 126.587L107.686 127.208V132.447V137.687L108.425 138.308L109.164 138.93H149.618C176.906 138.93 190.224 138.849 190.535 138.682C191.573 138.127 191.722 137.313 191.722 132.201V127.369L191.021 126.667L190.319 125.965H149.741H109.164L108.425 126.587ZM147.892 128.704C146.318 129.389 145.195 131.564 145.52 133.297C145.711 134.315 146.463 135.466 147.381 136.147C148.337 136.855 150.829 136.859 151.773 136.154C153.28 135.029 153.881 133.446 153.489 131.631C152.944 129.102 150.233 127.684 147.892 128.704Z" fill="#070E1E"/>
<mask id="path-2-inside-1_559_304" fill="white">
<path d="M165.5 48.912L184 48.912L186.5 68.1197L147.269 68.1197L165.5 48.912Z"/>
</mask>
<path d="M165.5 48.912L184 48.912L186.5 68.1197L147.269 68.1197L165.5 48.912Z" fill="#FCBE00"/>
<path d="M165.5 48.912L165.5 8.91199L148.317 8.91194L136.488 21.3748L165.5 48.912ZM184 48.912L223.666 43.7492L219.131 8.91214L184 8.91204L184 48.912ZM186.5 68.1197L186.5 108.12L232.044 108.12L226.166 62.9569L186.5 68.1197ZM147.269 68.1197L118.257 40.5825L54.1531 108.12L147.269 108.12L147.269 68.1197ZM165.5 48.912L165.5 88.912L184 88.912L184 48.912L184 8.91204L165.5 8.91199L165.5 48.912ZM184 48.912L144.335 54.0749L146.835 73.2826L186.5 68.1197L226.166 62.9569L223.666 43.7492L184 48.912ZM186.5 68.1197L186.5 28.1198L147.269 28.1197L147.269 68.1197L147.269 108.12L186.5 108.12L186.5 68.1197ZM147.269 68.1197L176.281 95.6569L194.512 76.4492L165.5 48.912L136.488 21.3748L118.257 40.5825L147.269 68.1197Z" fill="#FCBE00" mask="url(#path-2-inside-1_559_304)"/>
<rect x="177" y="94.0002" width="13" height="9" fill="#FCBE00"/>
<path fill-rule="evenodd" clip-rule="evenodd" d="M80 38.0002C70.5 59.0002 62.1384 75.7589 62.1384 75.9168C62.1384 76.1043 67.1946 76.2041 76.7115 76.2041C84.7268 76.2041 91.2847 76.2719 91.2847 76.3548C91.2847 76.4376 84.7253 92.3177 76.7084 111.643C68.6912 130.969 62.1653 146.868 62.2061 146.974C59.8674 148.795 145 55.0002 145 55.0002C145 55.0002 136.891 55.05 125.5 55.0002H110L123.021 36.2059C128.357 27.6652 142.377 7.65721 145.866 2.04265C147.134 0.000901937 147.138 0 147.138 0H120.947L97.5 0.000244141L80 38.0002Z" fill="#FCBE00"/>
<path d="M236.96 110V104.4L262.88 67.44H238.24V58.48H276.96V65.04L251.28 101.68H277.36V110H236.96ZM296.808 110.8C294.408 110.8 292.168 110.373 290.088 109.52C288.061 108.613 286.408 107.307 285.128 105.6C283.901 103.84 283.288 101.653 283.288 99.04C283.288 95.3067 284.595 92.32 287.208 90.08C289.875 87.84 293.795 86.72 298.968 86.72H310.168V85.68C310.168 83.3333 309.501 81.68 308.168 80.72C306.888 79.76 304.275 79.28 300.328 79.28C296.008 79.28 291.848 79.9467 287.848 81.28V73.68C289.608 72.9867 291.741 72.4267 294.248 72C296.808 71.52 299.581 71.28 302.568 71.28C308.275 71.28 312.675 72.4533 315.768 74.8C318.915 77.0933 320.488 80.8 320.488 85.92V110H311.128L310.568 106.56C309.075 107.893 307.235 108.933 305.048 109.68C302.861 110.427 300.115 110.8 296.808 110.8ZM299.768 103.68C302.168 103.68 304.248 103.28 306.008 102.48C307.768 101.68 309.155 100.667 310.168 99.44V93.44H299.208C294.995 93.44 292.888 95.1733 292.888 98.64C292.888 102 295.181 103.68 299.768 103.68ZM329.185 127.28V72.08H338.545L339.105 75.6C340.758 74.2133 342.572 73.1467 344.545 72.4C346.518 71.6533 348.838 71.28 351.505 71.28C357.052 71.28 361.318 72.8 364.305 75.84C367.345 78.8267 368.865 83.7333 368.865 90.56C368.865 97.3867 367.238 102.48 363.985 105.84C360.785 109.147 356.412 110.8 350.865 110.8C346.598 110.8 342.972 109.84 339.985 107.92V127.28H329.185ZM348.145 102.88C351.345 102.88 353.772 101.893 355.425 99.92C357.078 97.9467 357.905 94.8533 357.905 90.64C357.905 86.5867 357.158 83.68 355.665 81.92C354.172 80.1067 351.772 79.2 348.465 79.2C345.158 79.2 342.332 80.3467 339.985 82.64V100C341.105 100.853 342.278 101.547 343.505 102.08C344.785 102.613 346.332 102.88 348.145 102.88Z" fill="#060B1E"/>
<path d="M376.373 110V58.48H400.533C404.586 58.48 407.893 59.2533 410.453 60.8C413.066 62.3467 415.013 64.4533 416.293 67.12C417.573 69.7867 418.213 72.8267 418.213 76.24C418.213 79.7067 417.466 82.7733 415.973 85.44C414.533 88.1067 412.453 90.1867 409.733 91.68C407.066 93.12 403.893 93.84 400.213 93.84H387.173V110H376.373ZM387.173 85.28H397.973C401.066 85.28 403.386 84.48 404.933 82.88C406.533 81.2267 407.333 79.0133 407.333 76.24C407.333 73.2533 406.586 70.9867 405.093 69.44C403.599 67.84 401.359 67.04 398.373 67.04H387.173V85.28ZM447.625 110.8C430.932 110.8 422.585 102.027 422.585 84.48C422.585 75.04 424.692 68.2133 428.905 64C433.118 59.7867 439.358 57.68 447.625 57.68C455.892 57.68 462.132 59.7867 466.345 64C470.558 68.2133 472.665 75.04 472.665 84.48C472.665 102.027 464.318 110.8 447.625 110.8ZM447.625 101.6C452.478 101.6 456.025 100.213 458.265 97.44C460.558 94.6133 461.705 90.2933 461.705 84.48C461.705 78.0267 460.558 73.4933 458.265 70.88C456.025 68.2133 452.478 66.88 447.625 66.88C442.772 66.88 439.198 68.2133 436.905 70.88C434.665 73.4933 433.545 78.0267 433.545 84.48C433.545 90.2933 434.665 94.6133 436.905 97.44C439.198 100.213 442.772 101.6 447.625 101.6ZM496.201 110.8C492.894 110.8 489.801 110.56 486.921 110.08C484.094 109.6 481.641 108.907 479.561 108V98.48C481.907 99.44 484.441 100.213 487.161 100.8C489.881 101.387 492.547 101.68 495.161 101.68C498.894 101.68 501.641 101.333 503.401 100.64C505.161 99.9467 506.041 98.3733 506.041 95.92C506.041 94.3733 505.667 93.1467 504.921 92.24C504.174 91.3333 502.867 90.5333 501.001 89.84C499.187 89.0933 496.601 88.2667 493.241 87.36C487.854 85.8667 484.067 84 481.881 81.76C479.694 79.52 478.601 76.4267 478.601 72.48C478.601 67.7333 480.334 64.08 483.801 61.52C487.267 58.96 492.307 57.68 498.921 57.68C502.014 57.68 504.894 57.8933 507.561 58.32C510.227 58.7467 512.387 59.2533 514.041 59.84V69.36C509.667 67.7067 505.107 66.88 500.361 66.88C497.001 66.88 494.361 67.2533 492.441 68C490.521 68.6933 489.561 70.1867 489.561 72.48C489.561 73.8133 489.907 74.88 490.601 75.68C491.294 76.48 492.467 77.2 494.121 77.84C495.827 78.48 498.201 79.2 501.241 80C505.454 81.12 508.707 82.4533 511.001 84C513.294 85.5467 514.867 87.3067 515.721 89.28C516.627 91.2533 517.081 93.4667 517.081 95.92C517.081 100.4 515.374 104 511.961 106.72C508.547 109.44 503.294 110.8 496.201 110.8Z" fill="#FCBE00"/>
</svg>
