<svg width="54" height="17" viewBox="0 0 54 17" fill="none" xmlns="http://www.w3.org/2000/svg">
<path fill-rule="evenodd" clip-rule="evenodd" d="M0 8.5V17H27H54V8.5V0H27H0V8.5ZM0.619688 0.58015C0.579461 0.617734 0.546559 4.21241 0.546559 8.56831V16.488H27.0007H53.4548L53.4268 8.5256L53.3988 0.563253L27.0458 0.537446C12.5516 0.523211 0.659806 0.542463 0.619688 0.58015ZM50.5568 1.17751C50.0286 1.44172 49.9436 1.69355 50.327 1.8573C50.6427 1.99207 50.9933 1.81582 50.8937 1.5725C50.8631 1.49795 50.9347 1.38847 51.0526 1.32928C51.1707 1.27008 51.2672 1.18222 51.2672 1.13388C51.2672 0.949338 50.9773 0.967157 50.5568 1.17751ZM36.7713 1.17054C36.735 1.25892 36.7433 1.41192 36.7896 1.51054C36.8359 1.60916 36.8793 1.73584 36.8859 1.79217C36.9038 1.94158 37.4744 1.87891 37.7746 1.69468C37.9166 1.60742 38.0854 1.44398 38.1498 1.33133C38.2487 1.15825 38.2329 1.12651 38.0481 1.12651C37.9279 1.12651 37.7738 1.2241 37.7057 1.34351L37.5817 1.56042L37.453 1.31791C37.3007 1.03034 36.867 0.936638 36.7713 1.17054ZM36.7632 2.15685C36.5545 2.23079 36.2915 2.53761 36.2915 2.7071C36.2915 2.73895 36.4596 2.76506 36.6651 2.76506C37.4058 2.76506 37.6044 3.02395 37.1387 3.38228C36.9396 3.53538 36.9157 3.60697 37.0132 3.7571C37.1501 3.96807 37.477 4.03873 37.6971 3.90478C37.7788 3.85511 37.8703 3.60973 37.9005 3.35955C37.9655 2.81893 37.7607 2.56024 37.2675 2.56024C37.0914 2.56024 36.9474 2.51508 36.9474 2.45978C36.9474 2.40007 37.1412 2.3842 37.4248 2.42066C37.8912 2.48057 38.1836 2.34795 37.9208 2.19576C37.731 2.08588 37.0299 2.06233 36.7632 2.15685ZM39.2976 2.14169C39.1773 2.18962 38.9853 2.32644 38.8707 2.44575C38.665 2.65999 38.6653 2.66265 38.9019 2.66265C39.0336 2.66265 39.2602 2.58974 39.4054 2.50054C39.5601 2.4056 39.7621 2.36597 39.8934 2.40499C40.083 2.46142 40.1174 2.55717 40.1174 3.02795C40.1174 3.51091 40.0886 3.58638 39.8988 3.5997C39.7785 3.6082 39.6228 3.61967 39.5526 3.6253C39.4825 3.63093 39.4046 3.57799 39.3796 3.50753C39.3545 3.43717 39.4059 3.37952 39.4937 3.37952C39.7205 3.37952 39.9146 3.12769 39.8359 2.93557C39.7444 2.71211 39.406 2.62845 39.1378 2.76301C38.9591 2.85252 38.915 2.97633 38.915 3.38761V3.90058L39.7075 3.87047L40.5 3.84036L40.5318 3.11387C40.5537 2.6139 40.5196 2.35337 40.4225 2.27821C40.219 2.1206 39.553 2.03979 39.2976 2.14169ZM33.3088 2.21399C33.1499 2.3629 33.2362 2.68313 33.4494 2.73536C33.6339 2.78063 33.668 2.87505 33.668 3.3403C33.668 3.85388 33.6859 3.89157 33.9304 3.89157C34.1456 3.89157 34.2275 3.80083 34.3872 3.38484C34.4941 3.10608 34.616 2.89789 34.6579 2.92226C34.6999 2.94653 34.791 3.17746 34.8603 3.43543C34.9751 3.86238 35.0132 3.90171 35.2836 3.87242C35.5774 3.84077 35.5813 3.83022 35.6127 2.99548C35.644 2.1631 35.6405 2.1506 35.3815 2.1506C35.1363 2.1506 35.1207 2.18348 35.1497 2.63705L35.1809 3.12349L35.0064 2.63705C34.7678 1.97128 34.483 1.97036 34.2961 2.6349L34.1599 3.11919L34.1053 2.6605C34.0549 2.23786 34.0245 2.19945 33.7187 2.17139C33.5362 2.1546 33.3518 2.17385 33.3088 2.21399ZM41.5278 2.3163C41.4008 2.45967 41.4249 2.51508 41.7056 2.72594L42.0304 2.96988L41.7024 3.21904C41.4306 3.4256 41.3951 3.49995 41.4949 3.65428C41.561 3.75659 41.7705 3.8548 41.9603 3.87252C42.2347 3.89812 42.324 3.85777 42.3957 3.6763L42.4859 3.44783L42.7227 3.66975C42.8529 3.79172 43.0579 3.89157 43.1781 3.89157C43.3796 3.89157 43.3968 3.82326 43.3968 3.02108C43.3968 2.21891 43.3796 2.1506 43.1781 2.1506C42.9842 2.1506 42.9595 2.21891 42.9595 2.75543V3.36026L42.6871 3.24188C42.4719 3.14838 42.4145 3.0471 42.4138 2.75994C42.4134 2.56004 42.3539 2.34108 42.2818 2.27349C42.0954 2.09889 41.7005 2.12142 41.5278 2.3163ZM44.4899 2.96629C44.4899 3.6679 44.5194 3.79673 44.7013 3.88798C44.9886 4.03197 45.1005 4.02173 45.3017 3.8333C45.5009 3.6467 45.3584 3.27711 45.0873 3.27711C44.966 3.27711 44.9271 3.14029 44.9271 2.71386C44.9271 2.21891 44.9007 2.1506 44.7085 2.1506C44.5081 2.1506 44.4899 2.21891 44.4899 2.96629ZM46.1514 2.27349C45.9411 2.47053 45.9988 2.66009 46.3018 2.76803C46.541 2.85324 46.5806 2.92615 46.5645 3.25192C46.5349 3.85326 46.5506 3.89157 46.8283 3.89157C47.0147 3.89157 47.109 3.81947 47.1571 3.64005C47.1941 3.50169 47.279 3.2598 47.3458 3.1024L47.467 2.81627L47.6542 3.32831C47.8092 3.75249 47.8914 3.84589 48.1332 3.87272L48.4251 3.90519V3.02784C48.4251 2.21891 48.4081 2.1506 48.2065 2.1506C48.0229 2.1506 47.9871 2.22034 47.983 2.58584L47.9782 3.02108L47.8207 2.61145C47.7341 2.38614 47.6624 2.19024 47.6616 2.1762C47.6607 2.16217 47.567 2.1506 47.4534 2.1506C47.3032 2.1506 47.2233 2.25516 47.16 2.53464C47.0844 2.8686 47.0672 2.88529 47.0281 2.66265C47.0034 2.52184 46.9326 2.34907 46.8709 2.27861C46.7284 2.11599 46.3226 2.11312 46.1514 2.27349ZM49.3215 2.27349C49.169 2.41636 49.1461 2.82989 49.2864 2.91099C49.3392 2.94161 49.3571 3.17685 49.3263 3.4339L49.27 3.90109L50.0774 3.87078L50.8846 3.84036L50.9163 2.99548C50.9462 2.20355 50.9341 2.1506 50.725 2.1506C50.5218 2.1506 50.502 2.2141 50.502 2.86747V3.58434H50.1194C49.8098 3.58434 49.7368 3.54532 49.7368 3.37952C49.7368 3.24301 49.8098 3.1747 49.9555 3.1747C50.0769 3.1747 50.1741 3.10639 50.1741 3.02108C50.1741 2.93301 50.0756 2.86747 49.9433 2.86747H49.7126L49.95 2.68733C50.2622 2.45056 50.1487 2.1506 49.747 2.1506C49.5851 2.1506 49.3936 2.2059 49.3215 2.27349ZM3.17004 8.4488V12.2892H17.8725H32.5749V8.4488V4.60843H17.8725H3.17004V8.4488ZM33.2308 8.44152V12.2892H34.1053H34.9798V10.9066V9.5241L36.2642 9.52348C36.9705 9.52317 37.7265 9.47668 37.9441 9.42005C39.0577 9.13023 39.6005 8.36277 39.593 7.08839C39.5904 6.65376 39.5322 6.15994 39.4634 5.99096C39.2976 5.58348 38.851 5.15233 38.3138 4.88064C37.912 4.67766 37.6876 4.65697 35.5536 4.62676L33.2308 4.59389V8.44152ZM4.67308 5.5886C4.62804 5.63161 4.59109 5.7972 4.59109 5.95686V6.24699H6.16999C7.65357 6.24699 7.76551 6.26092 8.02239 6.47741C8.28069 6.69513 8.34781 6.91491 8.31983 7.45184C8.29698 7.88851 7.73348 8.08954 6.53138 8.08995L5.46559 8.09036V7.37349V6.65663H5.02834H4.59109V8.85843V11.0602H5.02834H5.46559V9.89062V8.7211L6.87822 8.68731C8.20953 8.65556 8.30758 8.63887 8.58294 8.39759C9.011 8.02236 9.18219 7.65051 9.18175 7.09699C9.18131 6.50055 8.89677 6.02087 8.39449 5.76945C8.10962 5.6269 7.69194 5.58112 6.39474 5.54999C5.49292 5.52828 4.71811 5.54569 4.67308 5.5886ZM41.4214 5.81175C40.9567 6.03224 40.7746 6.19251 40.582 6.55033C40.4467 6.80164 40.336 7.11266 40.336 7.24159C40.336 7.46351 40.3767 7.4759 41.1039 7.4759C41.8038 7.4759 41.8803 7.45512 41.9671 7.24128C42.1275 6.84578 42.3958 6.71418 43.0243 6.72268C43.7071 6.732 43.9433 6.87517 43.9433 7.27999C43.9433 7.66106 43.7259 7.76122 42.608 7.89486C40.8911 8.1003 40.1174 8.69069 40.1174 9.79569C40.1174 10.4673 40.4093 10.9476 40.9933 11.2369C41.8157 11.6444 42.9125 11.5139 43.7965 10.9035C44.0228 10.7472 44.0354 10.7533 44.1059 11.0541L44.1793 11.3675H45.0386C45.9306 11.3675 46.1924 11.252 45.8432 11.0127C45.6647 10.8904 45.6382 10.6486 45.5863 8.67061L45.5283 6.46481L45.2048 6.14868C44.7826 5.73607 44.0168 5.53012 42.9046 5.53012C42.1508 5.53012 41.9243 5.57313 41.4214 5.81175ZM46.172 5.6909C46.2083 5.77939 46.5855 6.90098 47.0104 8.18345L47.7828 10.5151L47.5162 11.4022L47.2495 12.2892H48.1076H48.9655L49.1292 11.7515C49.2193 11.4558 49.6405 10.0157 50.0653 8.5512C50.4902 7.08675 50.864 5.80786 50.8959 5.70934C50.9478 5.54917 50.862 5.53012 50.0877 5.53012H49.2213L48.9701 6.4262C48.832 6.9191 48.6889 7.3781 48.652 7.44631C48.6153 7.51451 48.4437 7.11122 48.2708 6.55022L47.9563 5.53012H47.0313C46.2355 5.53012 46.1153 5.55265 46.172 5.6909ZM29.4049 6.50301C29.4049 7.06053 29.4016 7.06627 29.0769 7.06627C28.8 7.06627 28.749 7.1061 28.749 7.32229C28.749 7.53848 28.8 7.57831 29.0769 7.57831H29.4049L29.4065 9.03765C29.4085 10.8923 29.4561 10.9979 30.3094 11.0398C30.9159 11.0696 30.9352 11.0624 30.9352 10.8093C30.9352 10.6051 30.8805 10.5482 30.6838 10.5482C30.2225 10.5482 30.17 10.384 30.17 8.94036V7.57831H30.5526C30.8879 7.57831 30.9352 7.54657 30.9352 7.32229C30.9352 7.09801 30.8879 7.06627 30.5526 7.06627H30.17V6.50301V5.93976H29.7875H29.4049V6.50301ZM34.9798 7.07558V8.21141L36.1372 8.17649C37.2491 8.1429 37.305 8.1303 37.5582 7.8542C37.7526 7.64242 37.8219 7.44549 37.8219 7.10497C37.8219 6.19804 37.3986 5.93976 35.9124 5.93976H34.9798V7.07558ZM11.0951 7.08029C10.9749 7.14092 10.7661 7.31236 10.6311 7.46126L10.3857 7.73193L10.3852 7.3991C10.3846 7.0977 10.3537 7.06627 10.0567 7.06627H9.72875V9.06325V11.0602H10.1113H10.4939V9.68345C10.4939 8.40302 10.5112 8.28781 10.7401 8.03854C10.9067 7.85707 11.1362 7.75159 11.4506 7.71206C11.8927 7.65655 11.915 7.6372 11.915 7.30877C11.915 7.00001 11.8835 6.96416 11.6144 6.96693C11.4491 6.96867 11.2154 7.01967 11.0951 7.08029ZM13.3343 7.15362C13.1248 7.25808 12.8059 7.53858 12.6255 7.77699C12.3215 8.17884 12.2976 8.27562 12.2976 9.10514C12.2976 9.89052 12.331 10.0462 12.5709 10.378C13.3626 11.4734 15.3843 11.4061 16.0523 10.2622C16.367 9.72318 16.4761 8.78419 16.288 8.23333C16.1215 7.74575 15.6954 7.29331 15.2252 7.10488C14.7201 6.90241 13.7903 6.92637 13.3343 7.15362ZM18.8017 7.07886C18.6514 7.13508 18.4177 7.27846 18.2825 7.39746L18.0364 7.61405V7.34011C18.0364 7.09545 17.9958 7.06627 17.6538 7.06627H17.2713V9.06325V11.0602H17.6538H18.0364L18.0391 9.95934C18.0432 8.18396 18.2519 7.71657 19.0868 7.6117C19.4319 7.56828 19.5549 7.60105 19.7309 7.78324C19.9232 7.98232 19.953 8.18571 19.9882 9.53434L20.0279 11.0602H20.3986H20.7692V9.61862V8.177L21.0888 7.87766C21.4664 7.52383 21.9327 7.4844 22.3148 7.77381C22.5622 7.96132 22.5743 8.03342 22.6081 9.51478L22.6433 11.0602H23.018H23.3927L23.3866 9.5497C23.3829 8.66375 23.3265 7.89097 23.25 7.68072C22.9579 6.87834 21.5709 6.71858 20.7966 7.39817C20.6612 7.51687 20.5506 7.55927 20.5506 7.49229C20.5506 7.29065 19.8663 6.96416 19.4575 6.97072C19.2471 6.97409 18.9519 7.02274 18.8017 7.07886ZM25.6561 7.21046C25.1578 7.52936 25.1417 7.53131 25.1417 7.27108C25.1417 7.10508 25.0688 7.06627 24.7571 7.06627H24.3725L24.4019 9.44729L24.4312 11.8283L24.7864 11.8604L25.1417 11.8925V11.2746V10.6567L25.5396 10.9097C25.9985 11.2015 26.6861 11.2455 27.2623 11.0199C28.3134 10.6085 28.77 8.75111 28.0603 7.77443C27.6845 7.25726 27.2895 7.03728 26.6492 6.98884C26.1609 6.95187 26.0062 6.98638 25.6561 7.21046ZM13.6263 7.69434C13.1118 7.97454 12.8533 9.18358 13.1605 9.87239C13.373 10.3488 13.7237 10.5482 14.3491 10.5482C15.0365 10.5482 15.3453 10.2716 15.5155 9.50351C15.7748 8.33359 15.3115 7.57555 14.341 7.58139C14.0588 7.58313 13.7372 7.63392 13.6263 7.69434ZM25.7599 7.69434C25.2454 7.97454 24.9869 9.18358 25.2941 9.87239C25.7687 10.9365 27.2648 10.719 27.5297 9.54734C27.7029 8.78163 27.4574 7.91002 27.0047 7.68308C26.7338 7.54728 26.0181 7.55373 25.7599 7.69434ZM43.2875 8.78408C42.9568 8.85587 42.5743 8.9377 42.4376 8.96596C41.4383 9.17211 41.5956 10.4058 42.6179 10.3808C43.4967 10.3591 43.9923 9.85447 43.923 9.05178L43.8887 8.65361L43.2875 8.78408Z" fill="#063765"/>
</svg>
