<svg width="18" height="22" viewBox="0 0 18 22" fill="none" xmlns="http://www.w3.org/2000/svg">
<path fill-rule="evenodd" clip-rule="evenodd" d="M8.73847 0.16122C8.71266 0.249913 8.52787 0.922181 8.32778 1.6552C8.12768 2.38821 7.9565 2.99604 7.94743 3.00592C7.9383 3.01581 7.01583 2.81478 5.89746 2.55924C4.7791 2.30365 3.85724 2.1021 3.84883 2.11134C3.82255 2.14032 3.29532 4.09478 3.31016 4.10828C3.31791 4.11533 3.67491 4.20123 4.10347 4.29913C4.93723 4.48958 5.23998 4.59143 5.41999 4.74199C5.58578 4.8806 5.70753 5.15179 5.70871 5.38511C5.70984 5.60789 3.48861 13.7644 3.36999 13.9731C3.33223 14.0395 3.2456 14.1337 3.1775 14.1825C2.95131 14.3443 2.7893 14.3393 1.91636 14.1436C1.46838 14.0432 1.08519 13.9587 1.06482 13.956C1.04445 13.9532 0.796524 14.4344 0.513908 15.0253L0 16.0996L2.03966 16.5679C3.16143 16.8255 4.08536 17.0409 4.09288 17.0465C4.10035 17.0522 3.91674 17.7463 3.68483 18.5891C3.45293 19.4319 3.27669 20.1281 3.29314 20.1362C3.35973 20.1689 5.3363 20.6032 5.35 20.588C5.35818 20.5791 5.55039 19.8933 5.77719 19.0641L6.18958 17.5565L6.94825 17.7405C7.36551 17.8417 7.71765 17.9343 7.73074 17.9462C7.74383 17.9581 7.57015 18.6385 7.34486 19.4582C7.11952 20.2778 6.94154 20.9543 6.94938 20.9614C6.98592 20.9946 8.89868 21.4124 8.96281 21.4012C9.01692 21.3917 9.14183 21.0024 9.44713 19.892C9.67337 19.0689 9.8661 18.3889 9.87541 18.3807C9.88467 18.3725 10.0603 18.3925 10.2656 18.4251C14.1007 19.0344 16.1832 18.2182 17.0917 15.7497C17.3203 15.1285 17.3966 14.6749 17.3726 14.0799C17.3493 13.5026 17.2353 13.1297 16.9492 12.6948C16.7282 12.3589 16.1908 11.8858 15.7148 11.6079C15.492 11.4778 15.3084 11.3613 15.3066 11.3489C15.3049 11.3366 15.4574 11.2788 15.6454 11.2206C16.8537 10.8464 17.6201 9.86644 17.8086 8.45479C17.8944 7.81184 17.7864 7.25638 17.4646 6.68528C17.3145 6.41885 17.1689 6.24865 16.8188 5.93012C16.1529 5.3241 15.4297 4.92462 14.2451 4.50846L13.7136 4.32174L14.128 2.8165C14.3558 1.9886 14.5275 1.29944 14.5094 1.28499C14.4416 1.23091 12.499 0.814529 12.4669 0.847246C12.4484 0.86599 12.2564 1.53048 12.0402 2.32381L11.647 3.76633L10.8662 3.60111C10.4368 3.51026 10.0805 3.43142 10.0745 3.42596C10.0685 3.4205 10.2424 2.76835 10.4611 1.97674C10.6796 1.18508 10.8591 0.515604 10.8598 0.488992C10.861 0.445871 9.03313 0 8.85515 0C8.81427 0 8.76588 0.0668528 8.73847 0.16122ZM10.1995 7.53755C9.30271 8.294 8.01368 9.38101 7.33503 9.95315L6.10106 10.9933L7.61221 11.2884C8.45836 11.4537 9.1328 11.6061 9.1449 11.6347C9.15677 11.6628 8.9441 12.6211 8.6723 13.7642C8.40055 14.9073 8.18103 15.845 8.18453 15.848C8.20036 15.8613 13.9087 11.0318 13.9034 11.0096C13.9002 10.9958 13.2196 10.8518 12.3911 10.6897C11.5626 10.5275 10.8813 10.3921 10.8772 10.3887C10.873 10.3854 11.0909 9.45397 11.3614 8.31898C11.6318 7.18398 11.8479 6.23437 11.8415 6.20875C11.8351 6.18313 11.0962 6.78106 10.1995 7.53755Z" fill="#FCBE00"/>
</svg>
